<svg width="392" height="218" viewBox="0 0 392 218" fill="none" xmlns="http://www.w3.org/2000/svg">
<g clip-path="url(#clip0_8826_18886)">
<mask id="mask0_8826_18886" style="mask-type:luminance" maskUnits="userSpaceOnUse" x="0" y="0" width="392" height="375">
<path d="M391.453 0L5.10849 0L0.000284104 375H386.345L391.453 0Z" fill="white"/>
</mask>
<g mask="url(#mask0_8826_18886)">
<path d="M2.44182 187.617C2.40005 190.684 2.43878 193.75 2.54792 196.816C2.66713 199.883 2.85691 202.939 3.11709 205.996C3.38734 209.053 3.73837 212.09 4.1598 215.127C4.58122 218.164 5.08329 221.191 5.65606 224.199C6.22879 227.207 6.8823 230.195 7.60638 233.174C8.34049 236.152 9.13527 239.111 10.021 242.041C10.8965 244.98 11.8428 247.891 12.8699 250.781C13.897 253.672 14.9949 256.533 16.1637 259.365C17.3424 262.207 18.582 265.01 19.8923 267.783C21.2128 270.557 22.5942 273.291 24.0464 275.996C25.4984 278.711 27.0216 281.377 28.6056 284.004C30.1996 286.641 31.8546 289.229 33.5805 291.777C35.2963 294.336 37.0832 296.846 38.9311 299.307C40.779 301.768 42.6978 304.189 44.6677 306.563C46.6375 308.936 48.6683 311.26 50.7604 313.525C52.8522 315.801 55.0052 318.027 57.2092 320.195C59.4132 322.363 61.6783 324.482 63.9944 326.543C66.3005 328.604 68.6678 330.605 71.0862 332.549C73.5045 334.492 75.9739 336.387 78.4844 338.213C80.9949 340.039 83.5565 341.807 86.1693 343.506C88.772 345.215 91.4158 346.855 94.1108 348.438C96.7958 350.01 99.5218 351.523 102.299 352.969C105.066 354.414 107.865 355.791 110.704 357.109C113.544 358.418 116.414 359.658 119.326 360.84C122.228 362.012 125.16 363.115 128.124 364.15C131.088 365.186 134.074 366.143 137.09 367.031C140.096 367.93 143.133 368.74 146.192 369.492C149.25 370.234 152.32 370.908 155.41 371.504C158.501 372.1 161.613 372.627 164.736 373.076C167.859 373.525 170.982 373.906 174.127 374.209C177.273 374.502 180.419 374.727 183.576 374.883C186.733 375.029 189.891 375.107 193.05 375.107C196.209 375.107 199.37 375.029 202.531 374.883C205.692 374.727 208.844 374.502 211.997 374.209C215.14 373.906 218.285 373.525 221.42 373.076C224.555 372.627 227.671 372.1 230.778 371.504C233.885 370.908 236.983 370.234 240.061 369.492C243.14 368.74 246.19 367.93 249.23 367.031C252.271 366.143 255.282 365.186 258.274 364.15C261.266 363.115 264.229 362.012 267.163 360.84C270.097 359.658 273.001 358.418 275.876 357.109C278.752 355.791 281.598 354.414 284.404 352.969C287.211 351.523 289.978 350.01 292.716 348.438C295.444 346.855 298.143 345.215 300.792 343.506C303.441 341.807 306.051 340.039 308.621 338.213C311.181 336.387 313.702 334.492 316.163 332.549C318.635 330.605 321.057 328.604 323.429 326.543C325.801 324.482 328.114 322.363 330.377 320.195C332.65 318.027 334.854 315.801 337.008 313.525C339.161 311.26 341.255 308.936 343.3 306.563C345.334 304.189 347.309 301.768 349.224 299.307C351.149 296.846 353.004 294.336 354.79 291.777C356.585 289.229 358.311 286.641 359.967 284.004C361.632 281.377 363.228 278.711 364.754 275.996C366.28 273.291 367.736 270.557 369.122 267.783C370.518 265.01 371.834 262.207 373.08 259.365C374.326 256.533 375.512 253.672 376.607 250.781C377.713 247.891 378.749 244.98 379.704 242.041C380.66 239.111 381.545 236.152 382.351 233.174C383.166 230.195 383.891 227.207 384.555 224.199C385.21 221.191 385.795 218.164 386.299 215.127C386.803 212.09 387.227 209.053 387.58 205.996C387.934 202.939 388.207 199.883 388.41 196.816C388.602 193.75 388.725 190.684 388.766 187.617C388.808 184.551 388.769 181.484 388.66 178.418C388.541 175.352 388.351 172.295 388.081 169.238C387.811 166.191 387.47 163.145 387.048 160.107C386.627 157.07 386.125 154.053 385.552 151.045C384.969 148.037 384.326 145.039 383.592 142.061C382.868 139.082 382.063 136.133 381.187 133.193C380.312 130.254 379.355 127.344 378.328 124.453C377.311 121.563 376.203 118.701 375.034 115.869C373.866 113.037 372.626 110.234 371.306 107.461C369.995 104.688 368.614 101.943 367.162 99.2383C365.71 96.5332 364.186 93.8672 362.593 91.2305C361.008 88.6035 359.354 86.0059 357.628 83.457C355.902 80.9082 354.125 78.3984 352.267 75.9277C350.419 73.4668 348.51 71.0449 346.54 68.6816C344.56 66.3086 342.53 63.9844 340.438 61.709C338.346 59.4336 336.203 57.2168 333.989 55.0488C331.785 52.8711 329.53 50.7617 327.214 48.7012C324.897 46.6406 322.53 44.6387 320.112 42.6855C317.704 40.7422 315.234 38.8574 312.724 37.0313C310.203 35.1953 307.641 33.4375 305.039 31.7285C302.436 30.0195 299.782 28.3789 297.097 26.8066C294.402 25.2246 291.676 23.7109 288.909 22.2656C286.142 20.8203 283.333 19.4434 280.494 18.1348C277.655 16.8164 274.784 15.5762 271.882 14.4043C268.98 13.2324 266.048 12.1191 263.084 11.0938C260.12 10.0586 257.135 9.0918 254.118 8.20313C251.102 7.31445 248.075 6.49414 245.016 5.75195C241.958 5 238.878 4.33594 235.788 3.73047C232.697 3.13476 229.595 2.60742 226.472 2.1582C223.35 1.70899 220.216 1.33789 217.081 1.03516C213.936 0.732424 210.79 0.507813 207.633 0.351563C204.475 0.205078 201.317 0.126953 198.158 0.126953C194.999 0.126953 191.839 0.205078 188.677 0.351563C185.516 0.507813 182.364 0.732424 179.211 1.03516C176.058 1.33789 172.923 1.70899 169.788 2.1582C166.653 2.60742 163.527 3.13476 160.42 3.73047C157.313 4.33594 154.225 5 151.147 5.75195C148.068 6.49414 145.008 7.31445 141.978 8.20313C138.937 9.0918 135.926 10.0586 132.934 11.0938C129.942 12.1191 126.979 13.2324 124.045 14.4043C121.101 15.5762 118.197 16.8164 115.322 18.1348C112.446 19.4434 109.611 20.8203 106.804 22.2656C103.987 23.7109 101.22 25.2246 98.492 26.8066C95.7541 28.3789 93.0656 30.0195 90.4163 31.7285C87.7571 33.4375 85.1474 35.1953 82.587 37.0313C80.0268 38.8574 77.5059 40.7422 75.0347 42.6855C72.5632 44.6387 70.1414 46.6406 67.7792 48.7012C65.4069 50.7617 63.0842 52.8711 60.821 55.0488C58.5579 57.2168 56.3444 59.4336 54.1906 61.709C52.0367 63.9844 49.9425 66.3086 47.908 68.6816C45.8737 71.0449 43.8889 73.4668 41.9739 75.9277C40.0589 78.3984 38.2036 80.9082 36.4183 83.457C34.6229 86.0059 32.8972 88.6035 31.2315 91.2305C29.5758 93.8672 27.98 96.5332 26.4541 99.2383C24.9283 101.943 23.4723 104.688 22.0762 107.461C20.6903 110.234 19.3743 113.037 18.1184 115.869C16.8725 118.701 15.6966 121.563 14.5907 124.453C13.4849 127.344 12.4593 130.254 11.5037 133.193C10.538 136.133 9.66277 139.082 8.84751 142.061C8.04229 145.039 7.30724 148.037 6.65256 151.045C5.99785 154.053 5.41344 157.07 4.90927 160.107C4.4051 163.145 3.9712 166.191 3.6178 169.238C3.27435 172.295 3.00129 175.352 2.79854 178.418C2.60586 181.484 2.48359 184.551 2.44182 187.617Z" fill="#12B76A"/>
</g>
<path d="M231.573 97.5287L239.973 94.2637C245.05 92.2502 250.127 90.3009 255.308 88.496C260.498 86.691 265.687 84.9823 270.956 83.4261C276.234 81.8778 281.542 80.458 286.882 79.2306H287.055C287.47 79.1343 287.883 79.1183 288.296 79.1664C288.708 79.2226 289.103 79.3349 289.473 79.5274C289.842 79.7119 290.169 79.9526 290.446 80.2494C290.731 80.5542 290.95 80.8911 291.102 81.2682C291.254 81.6452 291.339 82.0303 291.35 82.4394C291.37 82.8485 291.306 83.2416 291.177 83.6266C291.04 84.0197 290.845 84.3727 290.584 84.6935C290.324 85.0144 290.014 85.2872 289.656 85.5038L289.514 85.584C284.782 88.3837 279.976 91.071 275.107 93.6059C272.385 95.0098 269.656 96.3655 266.911 97.6811C266.312 97.9699 265.827 98.3951 265.464 98.9486C265.101 99.5021 264.919 100.104 264.91 100.754C264.901 101.411 265.067 102.013 265.414 102.566C265.762 103.12 266.236 103.545 266.827 103.834C269.553 105.15 272.245 106.513 274.912 107.917C279.713 110.436 284.462 113.083 289.109 115.939L289.338 116.083C290.059 116.533 290.539 117.158 290.784 117.961C291.029 118.755 290.985 119.541 290.636 120.311C290.295 121.081 289.742 121.659 288.968 122.044C288.202 122.429 287.399 122.525 286.559 122.341H286.294C280.923 121.105 275.644 119.677 270.417 118.137C265.182 116.597 260.032 114.864 254.916 113.075C252.349 112.177 249.825 111.198 247.284 110.276L239.738 107.291L231.518 104.043C230.802 103.802 230.229 103.385 229.791 102.791C229.361 102.197 229.147 101.532 229.157 100.794C229.159 100.064 229.391 99.3978 229.829 98.7962C230.275 98.1945 230.859 97.7693 231.573 97.5287Z" fill="#0D503C"/>
<path d="M162.258 97.5287L154.021 94.2397C148.999 92.2261 143.976 90.2768 138.843 88.4719C133.703 86.6669 128.561 84.9582 123.334 83.402C118.099 81.8457 112.828 80.4339 107.523 79.1985H107.349C106.937 79.1102 106.524 79.0862 106.11 79.1423C105.696 79.1905 105.298 79.3108 104.924 79.4953C104.549 79.6798 104.215 79.9285 103.93 80.2253C103.637 80.5221 103.409 80.859 103.247 81.2361C103.085 81.6131 102.989 82.0062 102.967 82.4073C102.936 82.8164 102.989 83.2175 103.107 83.6025C103.234 83.9876 103.42 84.3486 103.671 84.6695C103.923 84.9903 104.225 85.2551 104.578 85.4717L104.717 85.5599C109.373 88.3596 114.105 91.0469 118.906 93.5819C121.581 94.9777 124.273 96.3414 126.991 97.657C127.582 97.9458 128.056 98.371 128.403 98.9245C128.751 99.478 128.917 100.08 128.908 100.729C128.899 101.379 128.717 101.981 128.354 102.534C127.991 103.088 127.506 103.513 126.907 103.802C124.145 105.117 121.416 106.481 118.711 107.893C113.842 110.412 109.02 113.059 104.295 115.915L104.062 116.051C103.329 116.509 102.832 117.134 102.565 117.929C102.298 118.731 102.321 119.509 102.641 120.279C102.969 121.057 103.507 121.635 104.27 122.012C105.025 122.397 105.826 122.501 106.671 122.317H106.935C112.341 121.081 117.658 119.653 122.927 118.113C128.204 116.573 133.402 114.84 138.567 113.043C141.157 112.145 143.708 111.166 146.274 110.243L153.902 107.259L162.211 104.01C162.917 103.762 163.493 103.337 163.922 102.743C164.36 102.141 164.584 101.483 164.586 100.753C164.587 100.032 164.381 99.3737 163.952 98.7801C163.53 98.1865 162.965 97.7693 162.258 97.5287Z" fill="#0D503C"/>
<path d="M134.015 187.5H257.439C262.299 187.5 266.301 183.682 266.366 178.949C266.43 174.216 262.532 170.389 257.672 170.389H134.248C129.372 170.389 125.386 174.216 125.321 178.949C125.257 183.682 129.139 187.5 134.015 187.5Z" fill="#0D503C"/>
</g>
<defs>
<clipPath id="clip0_8826_18886">
<rect width="386.345" height="375.035" fill="white" transform="matrix(-1 0 -0.0136206 0.999907 391.453 0)"/>
</clipPath>
</defs>
</svg>
