<svg width="812" height="406" viewBox="0 0 812 406" fill="none" xmlns="http://www.w3.org/2000/svg">
<path d="M811.779 405.889C541.186 405.889 270.593 405.889 0 405.889C0 181.723 181.723 0 405.889 0C630.056 0 811.779 181.723 811.779 405.889Z" fill="#5FB0FE"/>
<path d="M243.166 167.889C239.673 167.889 236.232 168.21 232.825 168.869C229.401 169.528 226.082 170.507 222.866 171.791C219.651 173.074 216.592 174.661 213.69 176.536C210.805 178.428 208.128 180.555 205.66 182.937C203.192 185.335 201.003 187.935 199.056 190.739C197.127 193.559 195.493 196.515 194.155 199.639C192.817 202.763 191.809 205.989 191.131 209.316C190.453 212.626 190.105 215.97 190.105 219.364C190.105 222.742 190.436 226.085 191.113 229.412C191.791 232.722 192.799 235.948 194.137 239.072C195.458 242.197 197.092 245.169 199.021 247.989C200.95 250.793 203.158 253.393 205.608 255.792C208.076 258.19 210.753 260.318 213.655 262.192C216.54 264.084 219.599 265.671 222.814 266.954C226.03 268.255 229.349 269.234 232.756 269.893C236.179 270.552 239.621 270.889 243.097 270.889C246.59 270.889 250.031 270.552 253.438 269.893C256.862 269.234 260.181 268.255 263.396 266.954C266.612 265.671 269.653 264.084 272.556 262.192C275.441 260.318 278.117 258.19 280.585 255.792C283.053 253.393 285.243 250.793 287.172 247.989C289.101 245.169 290.735 242.197 292.073 239.072C293.411 235.948 294.402 232.722 295.08 229.412C295.758 226.085 296.105 222.742 296.105 219.364C296.088 215.986 295.758 212.643 295.08 209.316C294.402 206.006 293.394 202.797 292.056 199.673C290.735 196.548 289.101 193.593 287.172 190.773C285.243 187.969 283.036 185.369 280.585 182.987C278.135 180.589 275.458 178.461 272.573 176.587C269.671 174.712 266.629 173.125 263.414 171.824C260.198 170.524 256.896 169.544 253.49 168.886C250.083 168.227 246.642 167.889 243.166 167.889Z" fill="#194185"/>
<path d="M544.253 167.89C540.777 167.873 537.319 168.194 533.895 168.853C530.488 169.511 527.169 170.474 523.953 171.757C520.721 173.041 517.662 174.628 514.759 176.503C511.857 178.377 509.18 180.505 506.712 182.887C504.245 185.285 502.037 187.868 500.091 190.689C498.162 193.492 496.51 196.464 495.172 199.589C493.834 202.713 492.826 205.922 492.148 209.249C491.453 212.559 491.105 215.919 491.105 219.297C491.105 222.674 491.436 226.035 492.113 229.362C492.774 232.672 493.782 235.898 495.103 239.022C496.441 242.146 498.075 245.118 500.004 247.939C501.933 250.759 504.123 253.36 506.591 255.758C509.041 258.156 511.718 260.301 514.62 262.175C517.505 264.067 520.564 265.654 523.78 266.955C526.995 268.238 530.314 269.218 533.721 269.893C537.145 270.552 540.586 270.889 544.062 270.889C547.555 270.889 550.996 270.552 554.42 269.893C557.827 269.234 561.146 268.272 564.362 266.971C567.577 265.671 570.636 264.084 573.538 262.209C576.441 260.334 579.117 258.19 581.568 255.809C584.036 253.41 586.243 250.81 588.172 247.989C590.101 245.169 591.735 242.214 593.073 239.073C594.394 235.948 595.402 232.723 596.08 229.413C596.758 226.086 597.105 222.742 597.105 219.364C597.088 215.987 596.758 212.643 596.08 209.333C595.402 206.023 594.394 202.814 593.073 199.69C591.735 196.583 590.119 193.61 588.189 190.807C586.26 188.004 584.07 185.403 581.62 183.022C579.169 180.624 576.493 178.496 573.608 176.621C570.723 174.73 567.681 173.142 564.483 171.842C561.268 170.558 557.966 169.579 554.559 168.903C551.17 168.245 547.729 167.907 544.253 167.89Z" fill="#194185"/>
<path d="M477.292 320.245H477.048C475.758 319.989 474.45 319.955 473.142 320.143C471.834 320.348 470.613 320.758 469.445 321.389C468.294 322.021 467.282 322.823 466.428 323.797C465.556 324.787 464.911 325.879 464.44 327.092C460.342 337.677 451.326 353.913 434.549 353.913C413.709 353.913 404.85 330.557 404.502 329.601C403.717 327.348 402.322 325.538 400.316 324.172C398.311 322.806 396.078 322.158 393.637 322.226C391.195 322.294 389.016 323.062 387.097 324.514C385.162 325.982 383.871 327.86 383.208 330.165C382.092 333.596 380.47 336.772 378.343 339.691C376.198 342.628 373.652 345.154 370.704 347.306C367.757 349.44 364.548 351.079 361.061 352.222C357.573 353.366 353.998 353.964 350.336 353.998C336.838 353.998 328.013 337.557 323.689 326.835C323.2 325.606 322.503 324.514 321.596 323.54C320.706 322.567 319.66 321.782 318.457 321.184C317.271 320.587 315.998 320.211 314.673 320.058C313.347 319.904 312.022 319.989 310.731 320.297L309.755 320.536L310.487 320.365C308.935 320.741 307.522 321.423 306.284 322.397C305.029 323.37 304.035 324.548 303.302 325.948C302.587 327.331 302.186 328.816 302.116 330.387C302.047 331.94 302.308 333.46 302.901 334.911C309.232 350.43 323.654 375.885 350.336 375.885C354.538 375.936 358.689 375.527 362.805 374.639C366.92 373.768 370.861 372.436 374.663 370.661C378.465 368.885 382.005 366.717 385.301 364.139C388.58 361.578 391.527 358.676 394.125 355.432C396.445 358.573 399.095 361.39 402.077 363.917C405.077 366.444 408.321 368.595 411.843 370.371C415.349 372.146 419.011 373.495 422.847 374.434C426.684 375.356 430.573 375.851 434.514 375.885C437.444 375.663 440.339 375.236 443.199 374.588C446.059 373.939 448.867 373.085 451.587 372.01C454.308 370.934 456.924 369.671 459.452 368.202C461.981 366.734 464.37 365.078 466.637 363.251C468.904 361.425 471.014 359.427 472.95 357.276C474.903 355.125 476.665 352.854 478.269 350.43C479.856 348.006 481.234 345.496 482.42 342.867C483.623 340.237 484.599 337.523 485.349 334.757C485.646 334.023 485.855 333.272 485.977 332.487C486.099 331.718 486.134 330.933 486.082 330.148C486.029 329.362 485.89 328.594 485.681 327.843C485.454 327.074 485.14 326.357 484.756 325.657C484.373 324.975 483.919 324.326 483.396 323.745C482.873 323.148 482.28 322.619 481.635 322.14C480.99 321.68 480.309 321.287 479.577 320.962C478.827 320.638 478.077 320.399 477.292 320.245Z" fill="#194185"/>
</svg>
