<svg width="25" height="20" viewBox="0 0 25 20" fill="none" xmlns="http://www.w3.org/2000/svg">
<path d="M3.75 5C3.75 2.24042 5.99043 0 8.75 0C11.5096 0 13.75 2.24042 13.75 5C13.75 7.75957 11.5096 10 8.75 10C5.99043 10 3.75 7.75957 3.75 5ZM0 18.8398C0 14.9922 3.11719 11.875 6.96484 11.875H10.5352C14.3828 11.875 17.5 14.9922 17.5 18.8398C17.5 19.4805 16.9805 20 16.3398 20H1.16016C0.519531 20 0 19.4805 0 18.8398ZM24.4141 6.91406L19.4141 11.9141C19.0469 12.2812 18.4531 12.2812 18.0898 11.9141L15.5898 9.41406C15.2227 9.04688 15.2227 8.45312 15.5898 8.08984Cnan nan 16.5508 7.72266 16.9141 8.08984L18.75 9.92578L23.0859 5.58594C23.4531 5.21875 24.0469 5.21875 24.4102 5.58594Cnan nan 24.7773 6.54688 24.4102 6.91016L24.4141 6.91406Z" fill="#16A34A"/>
</svg>
