<svg width="14" height="16" viewBox="0 0 14 16" fill="none" xmlns="http://www.w3.org/2000/svg">
<path d="M7.00038 0C6.44725 0 6.00038 0.446875 6.00038 1V1.6C3.71913 2.0625 2.00038 4.08125 2.00038 6.5V7.0875C2.00038 8.55625 1.45975 9.975 0.484753 11.075L0.253503 11.3344C-0.00899661 11.6281 -0.0714966 12.05 0.0878784 12.4094C0.247253 12.7688 0.606628 13 1.00038 13H13.0004C13.3941 13 13.7504 12.7688 13.9129 12.4094C14.0754 12.05 14.0098 11.6281 13.7473 11.3344L13.516 11.075C12.541 9.975 12.0004 8.55937 12.0004 7.0875V6.5C12.0004 4.08125 10.2816 2.0625 8.00038 1.6V1C8.00038 0.446875 7.5535 0 7.00038 0ZM8.416 15.4156C8.791 15.0406 9.00038 14.5312 9.00038 14H7.00038H5.00038C5.00038 14.5312 5.20975 15.0406 5.58475 15.4156Cnan nan 6.46913 16 7.00038 16Cnan nan 8.041 15.7906 8.416 15.4156Z" fill="#EA580C"/>
</svg>
