<svg width="11" height="14" viewBox="0 0 11 14" fill="none" xmlns="http://www.w3.org/2000/svg">
<path d="M5.25 0C4.10703 0 3.13359 0.730078 2.77539 1.75H1.75C0.784766 1.75 0 2.53477 0 3.5V12.25C0 13.2152 0.784766 14 1.75 14H8.75C9.71523 14 10.5 13.2152 10.5 12.25V3.5C10.5 2.53477 9.71523 1.75 8.75 1.75H7.72461C7.36641 0.730078 6.39297 0 5.25 0ZM5.25 1.75C5.73293 1.75 6.125 2.14207 6.125 2.625C6.125 3.10793 5.73293 3.5 5.25 3.5C4.76707 3.5 4.375 3.10793 4.375 2.625C4.375 2.14207 4.76707 1.75 5.25 1.75ZM8.33984 7.46484L4.83984 10.9648C4.58281 11.2219 4.16719 11.2219 3.91289 10.9648L2.16016 9.21484C1.90313 8.95781 1.90313 8.54219 2.16016 8.28789 L 2.83281 8.03086 L 3.08711 8.28789L4.37227 9.57305L7.41016 6.53516C7.66719 6.27812 8.08281 6.27812 8.33711 6.53516 L 8.59414 7.20781 L 8.33711 7.46211L8.33984 7.46484Z" fill="#16A34A"/>
</svg>
