<svg width="16" height="16" viewBox="0 0 16 16" fill="none" xmlns="http://www.w3.org/2000/svg">
<path d="M8 16C12.4153 16 16 12.4153 16 8C16 3.58468 12.4153 0 8 0C3.58468 0 0 3.58468 0 8C0 12.4153 3.58468 16 8 16ZM6.75 10.5H7.5V8.5H6.75C6.33437 8.5 6 8.16562 6 7.75C6.33437 7 6.75 7H8.25C8.66562 7 9 7.33437 9 7.75V10.5H9.25C9.66562 10.5 10 10.8344 10 11.25C9.66562 12 9.25 12H6.75C6.33437 12 6 11.6656 6 11.25C6.33437 10.5 6.75 10.5ZM8 4C8.55192 4 9 4.44808 9 5C9 5.55192 8.55192 6 8 6C7.44808 6 7 5.55192 7 5C7 4.44808 7.44808 4 8 4Z" fill="#2563EB"/>
</svg>
