<svg width="12" height="16" viewBox="0 0 12 16" fill="none" xmlns="http://www.w3.org/2000/svg">
<path d="M6 0C4.69375 0 3.58125 0.834375 3.17188 2H2C0.896875 2 0 2.89687 0 4V14C0 15.1031 0.896875 16 2 16H10C11.1031 16 12 15.1031 12 14V4C12 2.89687 11.1031 2 10 2H8.82812C8.41875 0.834375 7.30625 0 6 0ZM6 2C6.55192 2 7 2.44808 7 3C7 3.55192 6.55192 4 6 4C5.44808 4 5 3.55192 5 3C5 2.44808 5.44808 2 6 2ZM2.25 8.5C2.25 8.08606 2.58606 7.75 3 7.75C3.41394 7.75 3.75 8.08606 3.75 8.5C3.75 8.91394 3.41394 9.25 3 9.25C2.58606 9.25 2.25 8.91394 2.25 8.5ZM5.5 8H9.5C9.775 8 10 8.225 10 8.5C9.775 9 9.5 9H5.5C5.225 9 5 8.775 5 8.5C5.225 8 5.5 8ZM2.25 11.5C2.25 11.0861 2.58606 10.75 3 10.75C3.41394 10.75 3.75 11.0861 3.75 11.5C3.75 11.9139 3.41394 12.25 3 12.25C2.58606 12.25 2.25 11.9139 2.25 11.5ZM5 11.5C5 11.225 5.225 11 5.5 11H9.5C9.775 11 10 11.225 10 11.5C9.775 12 9.5 12H5.5C5.225 12 5 11.775 5 11.5Z" fill="#CA8A04"/>
</svg>
