<svg width="11" height="14" viewBox="0 0 11 14" fill="none" xmlns="http://www.w3.org/2000/svg">
<path d="M5.25 0C4.10703 0 3.13359 0.730078 2.77539 1.75H1.75C0.784766 1.75 0 2.53477 0 3.5V12.25C0 13.2152 0.784766 14 1.75 14H8.75C9.71523 14 10.5 13.2152 10.5 12.25V3.5C10.5 2.53477 9.71523 1.75 8.75 1.75H7.72461C7.36641 0.730078 6.39297 0 5.25 0ZM5.25 1.75C5.73293 1.75 6.125 2.14207 6.125 2.625C6.125 3.10793 5.73293 3.5 5.25 3.5C4.76707 3.5 4.375 3.10793 4.375 2.625C4.375 2.14207 4.76707 1.75 5.25 1.75ZM1.96875 7.4375C1.96875 7.07531 2.26281 6.78125 2.625 6.78125C2.98719 6.78125 3.28125 7.07531 3.28125 7.4375C3.28125 7.79969 2.98719 8.09375 2.625 8.09375C2.26281 8.09375 1.96875 7.79969 1.96875 7.4375ZM4.8125 7H8.3125C8.55313 7 8.75 7.19688 8.75 7.4375 L 8.3125 7.875H4.8125C4.57188 7.875 4.375 7.67812 4.375 7.4375 L 4.8125 7ZM1.96875 10.0625C1.96875 9.70031 2.26281 9.40625 2.625 9.40625C2.98719 9.40625 3.28125 9.70031 3.28125 10.0625C3.28125 10.4247 2.98719 10.7188 2.625 10.7188C2.26281 10.7188 1.96875 10.4247 1.96875 10.0625ZM4.375 10.0625C4.375 9.82187 4.57188 9.625 4.8125 9.625H8.3125C8.55313 9.625 8.75 9.82187 8.75 10.0625 L 8.3125 10.5H4.8125C4.57188 10.5 4.375 10.3031 4.375 10.0625Z" fill="#9333EA"/>
</svg>
