<svg width="80" height="80" viewBox="0 0 80 80" fill="none" xmlns="http://www.w3.org/2000/svg">
<circle cx="40" cy="40" r="40" fill="#FD853A"/>
<path d="M33.1495 27.0631C33.1315 28.1007 32.8002 29.0253 32.0201 29.7895C30.8199 30.9679 28.9782 30.9791 27.7555 29.8188C26.2089 28.3503 26.2104 25.7592 27.76 24.2949C28.9858 23.1375 30.8214 23.1514 32.0231 24.334C32.8047 25.0982 33.133 26.027 33.1495 27.0631Z" fill="#9C2A10"/>
<path d="M48.1699 27.0478C48.1744 26.0075 48.5208 25.0843 49.3008 24.3229C50.489 23.1612 52.3111 23.1431 53.5264 24.2699C55.1 25.73 55.1091 28.3601 53.5429 29.8314C52.3307 30.9693 50.5161 30.9638 49.3129 29.8132C48.569 29.1048 48.1699 28.137 48.1699 27.0478Z" fill="#9C2A10"/>
<path d="M29.8791 15.5385C28.316 15.5636 26.8011 15.7882 25.3614 16.3753C24.6326 16.6737 23.961 17.0447 23.3827 17.5593C22.9957 17.9051 22.5891 18.237 22.1012 18.4601C21.8437 18.5787 21.5531 18.7028 21.3121 18.4643C21.0892 18.2412 21.0621 17.9414 21.2218 17.6792C22.5981 15.4465 24.5106 13.872 27.3613 13.5067C29.1262 13.2808 30.7977 13.6531 32.4271 14.2597C32.7809 14.3908 32.921 14.6223 32.921 14.9389C32.921 15.2694 32.7177 15.48 32.3804 15.5971C32.1379 15.6822 31.891 15.6878 31.635 15.6668C31.0507 15.618 30.4634 15.579 29.8791 15.5385Z" fill="#9C2A10"/>
<path d="M50.3459 15.5762C49.6878 15.5595 49.0372 15.6348 48.3822 15.6738C47.6217 15.7184 47.1805 15.2819 47.3371 14.706C47.3913 14.5052 47.5027 14.388 47.7075 14.3044C52.046 12.5444 56.3468 13.4174 58.9309 17.5551C59.1267 17.8689 59.1719 18.198 58.9068 18.4643C58.6342 18.7377 58.306 18.5633 58.0319 18.4141C57.7458 18.2565 57.4551 18.0836 57.2187 17.8661C55.511 16.2916 53.3802 15.7101 51.0521 15.579C50.8157 15.565 50.5793 15.5762 50.3459 15.5762Z" fill="#9C2A10"/>
<path d="M40.3895 54.9315C49.6568 54.967 52.244 40.7171 52.2756 40.5706C52.4292 39.8474 52.4861 38.8764 52.0871 38.5005C51.688 38.1246 51.5394 38.574 51.3455 38.5018C51.2578 38.6107 48.0532 40.5999 40.3895 40.5706C32.6097 40.5408 30.7515 38.8727 30.7515 38.8727C30.3868 38.539 29.5506 38.1716 29.133 38.5413C28.711 38.9171 28.7727 39.7724 28.8481 40.4809C28.8645 40.6275 31.1222 54.896 40.3895 54.9315Z" fill="#9C2A10"/>
</svg>
