<svg width="80" height="80" viewBox="0 0 80 80" fill="none" xmlns="http://www.w3.org/2000/svg">
<circle cx="40" cy="40" r="40" fill="#FEC84B"/>
<path d="M32.2025 21.4798C32.2025 21.8185 32.1774 22.1544 32.1272 22.4861C32.0769 22.8192 32.0015 23.1413 31.9025 23.455C31.8035 23.7674 31.6823 24.0646 31.5389 24.3466C31.3955 24.6285 31.2315 24.8898 31.0482 25.1289C30.8649 25.368 30.6669 25.5823 30.4511 25.7702C30.2368 25.9582 30.0092 26.1172 29.7697 26.2471C29.5303 26.377 29.2849 26.4752 29.0307 26.5415C28.7765 26.6065 28.5208 26.6397 28.2622 26.6397C28.0035 26.6397 27.7463 26.6065 27.4921 26.5415C27.2394 26.4752 26.9926 26.377 26.7531 26.2471C26.5137 26.1172 26.2875 25.9582 26.0718 25.7702C25.8574 25.5823 25.6579 25.368 25.4746 25.1289C25.2914 24.8898 25.1288 24.6285 24.9839 24.3466C24.8406 24.0646 24.7194 23.7674 24.6203 23.455C24.5213 23.1413 24.4459 22.8192 24.3957 22.4861C24.3454 22.1544 24.3203 21.8185 24.3203 21.4798C24.3203 21.1412 24.3454 20.8053 24.3957 20.4736C24.4459 20.1405 24.5213 19.8184 24.6203 19.5046C24.7194 19.1923 24.8406 18.8951 24.9839 18.6131C25.1288 18.3311 25.2914 18.0699 25.4746 17.8308C25.6579 17.5917 25.8574 17.3774 26.0718 17.1894C26.2875 17.0014 26.5137 16.8425 26.7531 16.7126C26.9926 16.5826 27.2394 16.4845 27.4921 16.4181C27.7463 16.3532 28.0035 16.32 28.2622 16.32C28.5208 16.32 28.7765 16.3532 29.0307 16.4181C29.2849 16.4845 29.5303 16.5826 29.7697 16.7126C30.0092 16.8425 30.2368 17.0014 30.4511 17.1894C30.6669 17.3774 30.8649 17.5917 31.0482 17.8308C31.2315 18.0699 31.3955 18.3311 31.5389 18.6131C31.6823 18.8951 31.8035 19.1923 31.9025 19.5046C32.0015 19.8184 32.0769 20.1405 32.1272 20.4736C32.1774 20.8053 32.2025 21.1412 32.2025 21.4798Z" fill="#93370D"/>
<path d="M55.6158 21.479C55.6158 21.8174 55.5888 22.151 55.5367 22.4815C55.4828 22.8121 55.4054 23.1331 55.301 23.4447C55.1984 23.7563 55.0705 24.0522 54.9207 24.3339C54.7693 24.6141 54.5993 24.8738 54.4074 25.1114C54.2156 25.3506 54.0069 25.5631 53.7814 25.7504C53.5576 25.9377 53.3186 26.0966 53.0695 26.2257C52.8188 26.3547 52.5613 26.4523 52.2954 26.5184C52.0295 26.5829 51.7619 26.616 51.491 26.616C51.22 26.616 50.9508 26.5829 50.6849 26.5184C50.4207 26.4523 50.1615 26.3547 49.9124 26.2257C49.6617 26.0966 49.4244 25.9377 49.1989 25.7504C48.9734 25.5631 48.7647 25.3506 48.5728 25.1114C48.3827 24.8738 48.211 24.6141 48.0612 24.3339C47.9098 24.0522 47.7836 23.7563 47.6792 23.4447C47.5766 23.1331 47.4975 22.8121 47.4453 22.4815C47.3915 22.151 47.3662 21.8174 47.3662 21.479C47.3662 21.1422 47.3915 20.8086 47.4453 20.4781C47.4975 20.146 47.5766 19.8249 47.6792 19.5133C47.7836 19.2017 47.9098 18.9058 48.0612 18.6257C48.211 18.3455 48.3827 18.0859 48.5728 17.8466C48.7647 17.609 48.9734 17.3965 49.1989 17.2092C49.4244 17.0219 49.6617 16.863 49.9124 16.7339C50.1615 16.6049 50.4207 16.5073 50.6849 16.4412C50.9508 16.3751 51.22 16.3436 51.491 16.3436C51.7619 16.3436 52.0295 16.3751 52.2954 16.4412C52.5613 16.5073 52.8188 16.6049 53.0695 16.7339C53.3186 16.863 53.5576 17.0219 53.7814 17.2092C54.0069 17.3965 54.2156 17.609 54.4074 17.8466C54.5993 18.0859 54.7693 18.3455 54.9207 18.6257C55.0705 18.9058 55.1984 19.2017 55.301 19.5133C55.4054 19.8249 55.4828 20.146 55.5367 20.4781C55.5888 20.8086 55.6158 21.1422 55.6158 21.479Z" fill="#93370D"/>
<path d="M25.8291 38.5724C28.6244 42.9523 33.9154 45.8498 39.8829 45.8513C45.8505 45.8498 51.1415 42.9523 53.9368 38.5724" stroke="#93370D" stroke-linecap="round"/>
</svg>
