<svg width="80" height="80" viewBox="0 0 80 80" fill="none" xmlns="http://www.w3.org/2000/svg">
<circle cx="40" cy="40" r="40" fill="#DD2590"/>
<path d="M32.9597 25.28C32.9597 25.637 32.9301 25.9911 32.8709 26.3409C32.8118 26.6921 32.723 27.0316 32.6064 27.3624C32.4899 27.6918 32.3472 28.0051 32.1784 28.3024C32.0096 28.5997 31.8164 28.8751 31.6007 29.1272C31.3849 29.3793 31.1517 29.6052 30.8977 29.8034C30.6453 30.0016 30.3774 30.1691 30.0955 30.3061C29.8136 30.4431 29.5247 30.5466 29.2254 30.6165C28.9261 30.685 28.6251 30.72 28.3206 30.72C28.016 30.72 27.7133 30.685 27.414 30.6165C27.1164 30.5466 26.8258 30.4431 26.5439 30.3061C26.262 30.1691 25.9958 30.0016 25.7417 29.8034C25.4894 29.6052 25.2545 29.3793 25.0387 29.1272C24.8229 28.8751 24.6315 28.5997 24.461 28.3024C24.2922 28.0051 24.1495 27.6918 24.0329 27.3624C23.9163 27.0316 23.8276 26.6921 23.7684 26.3409C23.7093 25.9911 23.6797 25.637 23.6797 25.28C23.6797 24.923 23.7093 24.5688 23.7684 24.2191C23.8276 23.8679 23.9163 23.5284 24.0329 23.1976C24.1495 22.8682 24.2922 22.5549 24.461 22.2576C24.6315 21.9603 24.8229 21.6849 25.0387 21.4328C25.2545 21.1807 25.4894 20.9548 25.7417 20.7566C25.9958 20.5584 26.262 20.3908 26.5439 20.2539C26.8258 20.1169 27.1164 20.0134 27.414 19.9435C27.7133 19.875 28.016 19.84 28.3206 19.84C28.6251 19.84 28.9261 19.875 29.2254 19.9435C29.5247 20.0134 29.8136 20.1169 30.0955 20.2539C30.3774 20.3908 30.6453 20.5584 30.8977 20.7566C31.1517 20.9548 31.3849 21.1807 31.6007 21.4328C31.8164 21.6849 32.0096 21.9603 32.1784 22.2576C32.3472 22.5549 32.4899 22.8682 32.6064 23.1976C32.723 23.5284 32.8118 23.8679 32.8709 24.2191C32.9301 24.5688 32.9597 24.923 32.9597 25.28Z" fill="#851651"/>
<path d="M56.6404 25.28C56.6404 25.637 56.6108 25.9911 56.5516 26.3409C56.4924 26.6921 56.4037 27.0316 56.2871 27.3624C56.1705 27.6918 56.0278 28.0051 55.859 28.3024C55.6885 28.5997 55.4971 28.8751 55.2813 29.1272C55.0656 29.3793 54.8306 29.6052 54.5783 29.8034C54.3243 30.0016 54.058 30.1691 53.7761 30.3061C53.4942 30.4431 53.2036 30.5466 52.9061 30.6165C52.6068 30.685 52.304 30.72 51.9995 30.72C51.695 30.72 51.3939 30.685 51.0946 30.6165C50.7953 30.5466 50.5065 30.4431 50.2246 30.3061C49.9427 30.1691 49.6747 30.0016 49.4224 29.8034C49.1683 29.6052 48.9351 29.3793 48.7194 29.1272C48.5036 28.8751 48.3105 28.5997 48.1417 28.3024C47.9729 28.0051 47.8302 27.6918 47.7136 27.3624C47.597 27.0316 47.5083 26.6921 47.4491 26.3409C47.3899 25.9911 47.3604 25.637 47.3604 25.28C47.3604 24.923 47.3899 24.5688 47.4491 24.2191C47.5083 23.8679 47.597 23.5284 47.7136 23.1976C47.8302 22.8682 47.9729 22.5549 48.1417 22.2576C48.3105 21.9603 48.5036 21.6849 48.7194 21.4328C48.9351 21.1807 49.1683 20.9548 49.4224 20.7566C49.6747 20.5584 49.9427 20.3908 50.2246 20.2539C50.5065 20.1169 50.7953 20.0134 51.0946 19.9435C51.3939 19.875 51.695 19.84 51.9995 19.84C52.304 19.84 52.6068 19.875 52.9061 19.9435C53.2036 20.0134 53.4942 20.1169 53.7761 20.2539C54.058 20.3908 54.3243 20.5584 54.5783 20.7566C54.8306 20.9548 55.0656 21.1807 55.2813 21.4328C55.4971 21.6849 55.6885 21.9603 55.859 22.2576C56.0278 22.5549 56.1705 22.8682 56.2871 23.1976C56.4037 23.5284 56.4924 23.8679 56.5516 24.2191C56.6108 24.5688 56.6404 24.923 56.6404 25.28Z" fill="#851651"/>
<path d="M52.8486 40.0475L28.2347 47.2162C27.2656 47.4985 26.3077 47.0381 26.097 46.1832C25.8862 45.3282 26.5036 44.4075 27.4728 44.1253L52.0866 36.9565C53.0591 36.6733 54.014 37.136 54.2247 37.991C54.4355 38.846 53.821 39.7642 52.8486 40.0475Z" fill="#851651"/>
</svg>
