<svg width="80" height="74" viewBox="0 0 80 74" fill="none" xmlns="http://www.w3.org/2000/svg">
<ellipse cx="40" cy="36.8" rx="40" ry="36.8" fill="#19C5E0"/>
<path d="M29.8791 14.2955C28.316 14.3186 26.8011 14.5251 25.3614 15.0653C24.6326 15.3398 23.961 15.6811 23.3827 16.1545C22.9957 16.4727 22.5891 16.7781 22.1012 16.9833C21.8437 17.0924 21.5531 17.2066 21.3121 16.9872C21.0892 16.7819 21.0621 16.5061 21.2218 16.2649C22.5981 14.2108 24.5106 12.7623 27.3613 12.4261C29.1262 12.2183 30.7977 12.5609 32.4271 13.119C32.7809 13.2396 32.921 13.4525 32.921 13.7438C32.921 14.0478 32.7177 14.2416 32.3804 14.3494C32.1379 14.4276 31.891 14.4327 31.635 14.4135C31.0507 14.3686 30.4634 14.3327 29.8791 14.2955Z" fill="#0B626F"/>
<path d="M50.3459 14.3301C49.6878 14.3147 49.0372 14.384 48.3822 14.4199C47.6217 14.461 47.1805 14.0594 47.3371 13.5295C47.3913 13.3448 47.5027 13.237 47.7075 13.16C52.046 11.5409 56.3468 12.344 58.9309 16.1507C59.1267 16.4393 59.1719 16.7421 58.9068 16.9872C58.6342 17.2386 58.306 17.0783 58.0319 16.941C57.7458 16.796 57.4551 16.6369 57.2187 16.4368C55.511 14.9883 53.3802 14.4533 51.0521 14.3327C50.8157 14.3198 50.5793 14.3301 50.3459 14.3301Z" fill="#0B626F"/>
<path d="M23.582 23.5356C25.0933 24.863 26.954 25.5403 28.6327 25.3752C30.3114 25.2101 32.0257 24.6688 33.2723 23.1058" stroke="#0B626F" stroke-width="1.5" stroke-linecap="round"/>
<path d="M47.1709 22.9288C48.7167 24.2158 50.5946 24.8438 52.2684 24.6344C53.9421 24.4251 55.6416 23.8387 56.8464 22.2434" stroke="#0B626F" stroke-width="1.5" stroke-linecap="round"/>
<path d="M56.0039 36.7999C53.8178 38.9415 49.7378 40.392 46.8163 41.1372C43.8883 41.8839 40.9518 41.8357 38.0018 41.0006" stroke="#0B626F" stroke-width="2" stroke-linecap="round"/>
</svg>
