<svg width="16" height="16" viewBox="0 0 24 24" fill="none" xmlns="http://www.w3.org/2000/svg">
  <path
    d="M13.5 2.5C13.5 2.5 15 5 15 7.5C15 9 14.25 10.5 13 11.25C13 10.5 12.75 9.25 11.5 8C10.5 10 8 11.5 8 14.5C8 17.5376 10.4624 20 13.5 20C16.5376 20 19 17.5376 19 14.5C19 10 16 6.5 13.5 2.5Z"
    fill="#F97316"
  />
  <path
    d="M11 12.5C10.5 13.1 10 14 10 15C10 16.6569 11.3431 18 13 18C14.6569 18 16 16.6569 16 15C16 13.9 15.5 13 15 12.25C14.5 13 13.75 13.5 13 13.5C12.25 13.5 11.5 13.1 11 12.5Z"
    fill="#FDBA74"
  />
</svg>
