<svg width="14" height="14" viewBox="0 0 14 14" fill="none" xmlns="http://www.w3.org/2000/svg">
<path d="M7.36642 0.0792969C7.25157 0.0273437 7.12853 0 7.00001 0C6.8715 0 6.74845 0.0273437 6.63361 0.0792969L1.48478 2.26406C0.883216 2.51836 0.434778 3.11172 0.437512 3.82812C0.451184 6.54063 1.56681 11.5035 6.27814 13.7594C6.73478 13.9781 7.26525 13.9781 7.72189 13.7594C12.4332 11.5035 13.5488 6.54063 13.5625 3.82812C13.5652 3.11172 13.1168 2.51836 12.5152 2.26406L7.36642 0.0792969ZM3.93751 6.05117C3.93751 5.12695 4.68673 4.375 5.61368 4.375C6.05665 4.375 6.48322 4.55273 6.79767 4.86445L7.00001 5.0668L7.20236 4.86445C7.51681 4.55 7.94337 4.375 8.38634 4.375C9.31056 4.375 10.0625 5.12422 10.0625 6.05117C10.0625 6.49414 9.88478 6.9207 9.57306 7.23516L7.31173 9.49648C7.1422 9.66602 6.86329 9.66602 6.69376 9.49648L4.43243 7.23516C4.11798 6.9207 3.94298 6.49414 3.94298 6.05117H3.93751Z" fill="#2563EB"/>
</svg>
