<svg width="22" height="22" viewBox="0 0 22 22" fill="none" xmlns="http://www.w3.org/2000/svg">
<path d="M9.55999 13.9876L9.55528 13.9766C9.46044 13.9541 9.36612 13.9295 9.27242 13.9027L9.26535 13.9004C8.36908 13.6427 7.54136 13.1889 6.84221 12.5717C6.0733 11.8934 5.482 11.0373 5.11985 10.0781C4.75771 9.11883 4.63572 8.08555 4.76453 7.06834C4.89333 6.05113 5.26902 5.08087 5.85884 4.24217C6.44865 3.40347 7.23468 2.72178 8.14839 2.25655C9.0621 1.79132 10.0758 1.55667 11.101 1.57307C12.1262 1.58946 13.1318 1.8564 14.0301 2.35061C14.9285 2.84482 15.6923 3.55129 16.255 4.40843C16.8177 5.26556 17.1622 6.24733 17.2584 7.26814C17.2891 7.59264 17.0227 7.85743 16.6966 7.85743C16.3714 7.85743 16.1113 7.59264 16.0736 7.26893C15.9697 6.3758 15.6319 5.52592 15.0942 4.80521C14.5566 4.0845 13.8383 3.51849 13.0118 3.16442C12.1853 2.81034 11.2799 2.68075 10.3873 2.78873C9.49465 2.89671 8.64634 3.23844 7.9281 3.77938C7.20987 4.32031 6.64719 5.04128 6.29692 5.8694C5.94665 6.69752 5.82122 7.60343 5.93331 8.49557C6.0454 9.3877 6.39103 10.2344 6.93527 10.9502C7.47951 11.6659 8.20306 12.2253 9.03278 12.5717L9.06421 12.5851C9.22135 12.6495 9.38269 12.7063 9.54821 12.7556C9.68728 12.4195 9.9386 12.1421 10.2593 11.9707C10.5801 11.7992 10.9503 11.7443 11.307 11.8153C11.6637 11.8863 11.9847 12.0788 12.2153 12.36C12.4459 12.6412 12.5719 12.9937 12.5716 13.3574C12.572 13.7186 12.4479 14.0688 12.2203 14.3492C11.9928 14.6296 11.6755 14.8231 11.322 14.8971C10.9685 14.971 10.6004 14.921 10.2795 14.7553C9.95853 14.5897 9.70446 14.3186 9.55999 13.9876ZM8.78528 14.987C7.38949 14.5529 6.15188 13.7185 5.226 12.5874C4.6522 12.6546 4.12306 12.9302 3.73908 13.3619C3.35509 13.7935 3.143 14.3511 3.14307 14.9289V15.4906C3.14307 18.4119 6.45092 20.4289 11.0002 20.4289C15.5495 20.4289 18.8574 18.3011 18.8574 15.4906V14.9289C18.8574 14.3037 18.609 13.7042 18.167 13.2621C17.7249 12.8201 17.1254 12.5717 16.5002 12.5717H13.6363C13.8216 13.1925 13.7819 13.8587 13.524 14.453C13.2662 15.0473 12.8068 15.5315 12.2269 15.8202C11.647 16.109 10.9838 16.1837 10.3541 16.0313C9.72451 15.8788 9.16891 15.509 8.78528 14.987ZM14.9288 7.85743C14.9288 6.66943 14.4024 5.60478 13.5687 4.88428C13.1504 4.52346 12.6608 4.2549 12.1317 4.09613C11.6026 3.93737 11.0459 3.89198 10.4981 3.96292C9.95026 4.03386 9.42354 4.21953 8.95233 4.50783C8.48112 4.79612 8.076 5.18055 7.76343 5.63601C7.45085 6.09148 7.23785 6.60775 7.13831 7.15112C7.03878 7.69448 7.05496 8.25273 7.1858 8.78942C7.31663 9.32611 7.55918 9.82917 7.89761 10.2658C8.23603 10.7024 8.66273 11.0627 9.14985 11.3232C9.65609 10.8627 10.3158 10.6075 11.0002 10.6074C11.6848 10.6073 12.3449 10.8625 12.8514 11.3232C13.4791 10.9879 14.0039 10.4883 14.3698 9.87788C14.7357 9.26746 14.9289 8.56911 14.9288 7.85743Z" fill="#9333EA"/>
</svg>
