<svg width="80" height="80" viewBox="0 0 80 80" fill="none" xmlns="http://www.w3.org/2000/svg">
<circle cx="40" cy="40" r="40" fill="#F04438"/>
<path d="M35.354 28.2074C33.424 28.1558 31.5132 27.9598 29.6197 27.6179C27.7242 27.2759 25.8729 26.7932 24.0638 26.1698C22.2547 25.5446 20.5127 24.7893 18.8379 23.8988C17.1631 23.01 15.5765 22 14.0801 20.869L15.5228 19.2C16.9501 20.2758 18.4638 21.2341 20.0638 22.0748C21.6619 22.9155 23.3252 23.628 25.0537 24.2122C26.7804 24.7965 28.5473 25.2435 30.3545 25.5535C32.1617 25.8634 33.9842 26.0326 35.8221 26.0611L35.9391 28.195C35.872 28.1967 35.6744 28.2074 35.354 28.2074Z" fill="#912018"/>
<path d="M23.9392 24.9514C23.7071 25.0743 23.4922 25.2151 23.2908 25.3771C23.0912 25.5392 22.909 25.7156 22.7459 25.9115C22.5809 26.1056 22.4409 26.3123 22.32 26.5331C22.2011 26.7522 22.1051 26.982 22.0322 27.2189C21.9613 27.4558 21.9152 27.698 21.8941 27.9438C21.873 28.1896 21.8768 28.4336 21.9075 28.6795C21.9382 28.9235 21.9939 29.1639 22.0744 29.399C22.1569 29.6342 22.2605 29.8586 22.3891 30.0741C22.5176 30.2914 22.6673 30.4927 22.838 30.6815C23.0087 30.8703 23.1987 31.0413 23.4059 31.1963C23.6131 31.3512 23.8337 31.4848 24.0677 31.6006C24.3037 31.7146 24.5493 31.8072 24.8025 31.8767C25.0577 31.9461 25.3167 31.9924 25.5814 32.0156C25.8462 32.0388 26.1109 32.0388 26.3757 32.0138C26.6385 31.9889 26.8975 31.9408 27.1526 31.8678C27.4059 31.7965 27.6495 31.7021 27.8855 31.5863C28.1196 31.4706 28.3383 31.3334 28.5455 31.1784C28.7507 31.0217 28.9387 30.8489 29.1076 30.6601C29.2764 30.4695 29.4241 30.2665 29.5507 30.0492C29.6774 29.8319 29.7809 29.6057 29.8596 29.3705C29.9383 29.1354 29.992 28.895 30.0208 28.651C30.0495 28.4052 30.0515 28.1593 30.0284 27.9135C30.0054 27.6677 29.9574 27.4273 29.8845 27.1904C29.8097 26.9535 29.7119 26.7255 29.591 26.5064C27.6591 26.1359 25.7752 25.6176 23.9392 24.9514Z" fill="#912018"/>
<path d="M44.3744 28.2074C46.3044 28.1576 48.2171 27.9616 50.1126 27.6196C52.008 27.2777 53.8613 26.795 55.6704 26.1715C57.4814 25.5463 59.2253 24.7911 60.9002 23.9005C62.5769 23.0117 64.1635 22.0018 65.6618 20.869L64.2191 19.2C62.7918 20.2758 61.2781 21.2341 59.6781 22.0748C58.08 22.9155 56.4167 23.628 54.6881 24.2122C52.9615 24.7965 51.1946 25.2435 49.3874 25.5535C47.5802 25.8634 45.7577 26.0326 43.9198 26.0611L43.8027 28.195C43.8565 28.1967 44.0541 28.2074 44.3744 28.2074Z" fill="#912018"/>
<path d="M55.7896 24.9514C56.0217 25.0743 56.2366 25.2151 56.438 25.3771C56.6375 25.5392 56.8198 25.7156 56.9828 25.9115C57.1478 26.1056 57.2879 26.3123 57.4087 26.5331C57.5277 26.7522 57.6236 26.982 57.6965 27.2189C57.7675 27.4558 57.8135 27.698 57.8346 27.9438C57.8557 28.1896 57.8519 28.4336 57.8212 28.6795C57.7905 28.9235 57.7349 29.1639 57.6543 29.399C57.5718 29.6342 57.4682 29.8586 57.3397 30.0741C57.2111 30.2914 57.0615 30.4927 56.8908 30.6815C56.72 30.8703 56.5301 31.0413 56.3229 31.1963C56.1157 31.3512 55.8951 31.4848 55.661 31.6006C55.425 31.7146 55.1795 31.8072 54.9262 31.8767C54.6711 31.9461 54.4121 31.9924 54.1473 32.0156C53.8826 32.0388 53.6178 32.0388 53.3531 32.0138C53.0903 31.9889 52.8313 31.9408 52.5761 31.8678C52.3229 31.7965 52.0792 31.7021 51.8433 31.5863C51.6092 31.4706 51.3905 31.3334 51.1833 31.1784C50.978 31.0217 50.79 30.8489 50.6212 30.6601C50.4524 30.4695 50.3046 30.2665 50.178 30.0492C50.0514 29.8319 49.9478 29.6057 49.8692 29.3705C49.7905 29.1354 49.7368 28.895 49.708 28.651C49.6792 28.4051 49.6773 28.1593 49.7003 27.9135C49.7233 27.6677 49.7713 27.4273 49.8442 27.1904C49.919 26.9535 50.0169 26.7255 50.1377 26.5064C52.0696 26.1359 53.9536 25.6176 55.7896 24.9514Z" fill="#912018"/>
<path d="M26.4385 37.6762L53.2894 37.6762L53.2894 39.8154L26.4385 39.8154L26.4385 37.6762Z" fill="#912018"/>
</svg>
