<svg width="80" height="80" viewBox="0 0 80 80" fill="none" xmlns="http://www.w3.org/2000/svg">
<circle cx="40" cy="40" r="40" fill="#7A5AF8"/>
<path d="M46.9635 30.5252C46.9795 30.9141 47.0263 31.297 47.104 31.6722C47.1817 32.049 47.2899 32.4101 47.4269 32.759C47.5639 33.1063 47.7275 33.4335 47.9177 33.7407C48.108 34.0478 48.3228 34.3288 48.5603 34.5821C48.7978 34.8354 49.0524 35.0584 49.3276 35.2492C49.601 35.4402 49.8894 35.5962 50.1911 35.7176C50.4928 35.8389 50.8003 35.9231 51.1172 35.9696C51.4341 36.0146 51.7513 36.023 52.0706 35.9928C52.3898 35.9627 52.7057 35.8946 53.0165 35.7904C53.3253 35.6847 53.6254 35.5432 53.9148 35.3661C54.2043 35.1889 54.4759 34.98 54.7334 34.739C54.9891 34.4981 55.2253 34.2287 55.4403 33.9327C55.6553 33.6367 55.8436 33.3177 56.0092 32.9769C56.1728 32.6363 56.3084 32.2808 56.416 31.9105C56.5234 31.5386 56.6013 31.1598 56.6476 30.7714C56.694 30.3845 56.7092 29.9957 56.6933 29.6068C56.6773 29.2178 56.6305 28.8349 56.5528 28.4597C56.4751 28.0829 56.3669 27.7218 56.2299 27.3729C56.0929 27.0257 55.9293 26.6984 55.739 26.3913C55.547 26.0843 55.334 25.8031 55.0965 25.5498C54.859 25.2965 54.6026 25.0737 54.3292 24.8827C54.054 24.6919 53.7673 24.5357 53.4656 24.4144C53.164 24.293 52.8547 24.209 52.5396 24.1623C52.2227 24.1173 51.9037 24.1091 51.5844 24.1393C51.2651 24.1694 50.9511 24.2373 50.6403 24.3416C50.3296 24.4474 50.0314 24.5887 49.742 24.7658C49.4525 24.943 49.179 25.1521 48.9233 25.393C48.6658 25.634 48.4315 25.9032 48.2165 26.1992C48.0015 26.4952 47.8113 26.8144 47.6476 27.155C47.4839 27.4956 47.3483 27.8511 47.2408 28.2214C47.1334 28.5934 47.0555 28.9721 47.0091 29.3606C46.9627 29.7475 46.9475 30.1362 46.9635 30.5252Z" fill="#3E1C96"/>
<path d="M22.274 30.463C22.29 30.852 22.3368 31.2349 22.4145 31.6101C22.4922 31.9868 22.6004 32.348 22.7375 32.6969C22.8744 33.0441 23.038 33.3714 23.2283 33.6785C23.4204 33.9855 23.6334 34.2667 23.8708 34.52C24.1083 34.7733 24.3647 34.9961 24.6381 35.1871C24.9134 35.3779 25.2 35.5341 25.5017 35.6554C25.8034 35.7768 26.1127 35.8607 26.4278 35.9075C26.7446 35.9525 27.0636 35.9606 27.3829 35.9305C27.7022 35.9004 28.0163 35.8325 28.327 35.7282C28.6377 35.6224 28.9359 35.4811 29.2254 35.304C29.5148 35.1268 29.7883 34.9177 30.044 34.6768C30.3015 34.4358 30.5359 34.1666 30.7508 33.8706C30.9658 33.5745 31.156 33.2554 31.3197 32.9148C31.4834 32.5742 31.619 32.2187 31.7265 31.8484C31.834 31.4764 31.9118 31.0977 31.9582 30.7092C32.0046 30.3223 32.0198 29.9336 32.0038 29.5446C31.9879 29.1556 31.941 28.7728 31.8634 28.3976C31.7856 28.0208 31.6774 27.6597 31.5404 27.3108C31.4035 26.9635 31.2398 26.6363 31.0496 26.3291C30.8593 26.0219 30.6445 25.741 30.407 25.4877C30.1695 25.2344 29.915 25.0114 29.6397 24.8206C29.3663 24.6296 29.0779 24.4736 28.7762 24.3522C28.4745 24.2309 28.167 24.1467 27.8501 24.1002C27.5332 24.0552 27.216 24.0468 26.8968 24.077C26.5775 24.1071 26.2616 24.1752 25.9509 24.2794C25.642 24.3851 25.3419 24.5266 25.0525 24.7037C24.7631 24.8808 24.4914 25.0898 24.2339 25.3308C23.9782 25.5717 23.742 25.8411 23.527 26.1371C23.3121 26.4331 23.1237 26.7521 22.9582 27.0929C22.7945 27.4335 22.6589 27.7889 22.5514 28.1593C22.4439 28.5312 22.366 28.9099 22.3197 29.2984C22.2733 29.6853 22.2581 30.0741 22.274 30.463Z" fill="#3E1C96"/>
<path d="M63.3259 24.8448C63.7293 24.8327 64.1406 24.7124 64.4947 24.4763C65.3634 23.8977 65.5602 22.8447 64.9358 22.1247C58.7822 15.047 50.3457 15.2174 49.9877 15.2281C48.9193 15.2602 48.0334 16.035 48.0121 16.9575C47.9908 17.8769 48.8349 18.5982 49.9032 18.5692C50.203 18.5633 56.8157 18.5056 61.7896 24.2226C62.1592 24.6498 62.7372 24.8625 63.3259 24.8448ZM16.8053 26.2417C17.3959 26.2239 17.9809 25.9763 18.3726 25.5263C23.6254 19.4913 30.2588 19.1622 30.5406 19.1506C31.6074 19.1092 32.4842 18.3316 32.5 17.4139C32.5158 16.4946 31.6717 15.7781 30.6069 15.8101C30.2489 15.8208 21.8103 16.1571 15.319 23.6145C14.6587 24.3731 14.8089 25.4157 15.652 25.9429C15.9956 26.158 16.4001 26.2538 16.8053 26.2417ZM28.8209 52.392C28.8444 52.3178 31.2104 45.0093 39.6216 44.7567C48.0328 44.5042 50.0641 51.6806 50.0842 51.7536C50.1778 52.1061 49.984 52.475 49.6144 52.6755C49.2485 52.8727 48.7716 52.8448 48.4629 52.6099C48.4414 52.5965 46.5284 51.2264 39.4672 51.4385C32.5115 51.6473 30.4861 53.0949 30.4103 53.152C30.2215 53.3079 29.9799 53.3934 29.7382 53.4007C29.5747 53.4056 29.4101 53.3761 29.2628 53.3085C28.8873 53.1319 28.7071 52.7586 28.8209 52.392Z" fill="#3E1C96"/>
</svg>
